<svg width="439" height="84" viewBox="0 0 439 84" fill="none" xmlns="http://www.w3.org/2000/svg">
    <g clip-path="url(#clip0_0_1)">
    <path d="M11.56 2.0499V19.7899L23.61 2.0499H37.64L17.26 22.8399L54.47 2.0499V15.2499L21.06 27.7899L54.47 24.6599V37.1999L21.06 34.0699L54.47 46.6099V59.8099L17.26 39.0199L37.64 59.8099H23.6L11.55 42.0699V59.8099H0V2.0499H11.56Z" fill="url(#paint0_radial_0_1)"/>
    <path d="M62.71 2.0499H76.32L74.26 39.4199L91.17 2.0499H102.31V59.7999H88.7L90.76 22.4299L73.85 59.7999H62.71V2.0499Z" fill="url(#paint1_radial_0_1)"/>
    <path d="M110.56 2.0499H124.17V24.3299H135.72V2.0499H149.33V59.7999H135.72V33.3999H124.17V59.7999H110.56V2.0499Z" fill="url(#paint2_radial_0_1)"/>
    <path d="M155.6 30.9299C155.6 14.4299 163.19 0.899902 178.45 0.899902C193.71 0.899902 201.3 14.4299 201.3 30.9299C201.3 47.4299 193.71 60.9599 178.45 60.9599C163.19 60.9599 155.6 47.4299 155.6 30.9299ZM178.45 52.3799C183.81 52.3799 186.95 42.8899 186.95 30.9299C186.95 18.9699 183.81 9.4799 178.45 9.4799C173.09 9.4799 169.95 18.9699 169.95 30.9299C169.96 42.8899 173.09 52.3799 178.45 52.3799Z" fill="url(#paint3_radial_0_1)"/>
    <path d="M207.57 2.0499H246.76V59.7999H233.15V11.1199H221.19V59.7999H207.58V2.0499H207.57Z" fill="url(#paint4_radial_0_1)"/>
    <path d="M253.03 30.9299C253.03 14.4299 260.62 0.899902 275.88 0.899902C291.14 0.899902 298.73 14.4299 298.73 30.9299C298.73 47.4299 291.14 60.9599 275.88 60.9599C260.62 60.9599 253.03 47.4299 253.03 30.9299ZM275.89 52.3799C281.25 52.3799 284.39 42.8899 284.39 30.9299C284.39 18.9699 281.25 9.4799 275.89 9.4799C270.53 9.4799 267.39 18.9699 267.39 30.9299C267.39 42.8899 270.52 52.3799 275.89 52.3799Z" fill="url(#paint5_radial_0_1)"/>
    <path d="M305.01 2.0499H318.62L316.56 39.4199L333.47 2.0499H344.61V59.7999H331L333.06 22.4299L316.15 59.7999H305.01V2.0499Z" fill="url(#paint6_radial_0_1)"/>
    <path d="M380.82 39.4199L393.77 41.3999L393.36 43.3799C391.13 54.1099 384.37 60.9499 373.23 60.9499C357.97 60.9499 350.87 47.4199 350.87 30.9199C350.87 14.4199 357.97 0.889893 373.23 0.889893C383.96 0.889893 390.8 7.7399 393.2 17.7999L393.61 19.5299L380.33 22.4999C379.34 14.4999 376.95 9.4599 373.23 9.4599C367.87 9.4599 365.23 18.9499 365.23 30.9099C365.23 42.8699 367.87 52.3599 373.23 52.3599C377.28 52.3799 379.83 47.0099 380.82 39.4199Z" fill="url(#paint7_radial_0_1)"/>
    <path d="M399.38 2.0499H412.99V28.0399L424.13 2.0499H438.16L422.07 30.0199L438.57 59.7999H423.31L413 33.8099V59.7999H399.39V2.0499H399.38Z" fill="url(#paint8_radial_0_1)"/>
    </g>
    <g clip-path="url(#paint9_diamond_0_1_clip_path)" data-figma-skip-parse="true"><g transform="matrix(0.183 -0.003 0.000916195 0.0558879 219 78.5)"><rect x="0" y="0" width="1006.85" height="384.595" fill="url(#paint9_diamond_0_1)" opacity="1" shape-rendering="crispEdges"/><rect x="0" y="0" width="1006.85" height="384.595" transform="scale(1 -1)" fill="url(#paint9_diamond_0_1)" opacity="1" shape-rendering="crispEdges"/><rect x="0" y="0" width="1006.85" height="384.595" transform="scale(-1 1)" fill="url(#paint9_diamond_0_1)" opacity="1" shape-rendering="crispEdges"/><rect x="0" y="0" width="1006.85" height="384.595" transform="scale(-1)" fill="url(#paint9_diamond_0_1)" opacity="1" shape-rendering="crispEdges"/></g></g><path d="M46.696 69.152L43.48 70.808L45.112 74.048L44.656 74.384L42.088 71.84L39.52 74.384L39.064 74.048L40.696 70.808L37.48 69.152L37.648 68.624L41.248 69.176L41.824 65.6H42.352L42.928 69.176L46.528 68.624L46.696 69.152ZM48.5224 70.4H60.6424V74.36H60.0904C59.9944 73.496 59.7464 72.792 59.3464 72.248C58.9464 71.704 58.2984 71.432 57.4024 71.432H56.4184V80.6C56.4184 81.384 56.5224 81.88 56.7304 82.088C56.9544 82.296 57.3304 82.416 57.8584 82.448V83H51.6184V82.448C51.9704 82.416 52.2344 82.296 52.4104 82.088C52.6024 81.88 52.6984 81.384 52.6984 80.6V71.432H51.6904C50.8424 71.432 50.2184 71.704 49.8184 72.248C49.4184 72.792 49.1704 73.496 49.0744 74.36H48.5224V70.4ZM69.0634 70.04C70.4554 70.04 71.6554 70.344 72.6634 70.952C73.6714 71.544 74.4474 72.344 74.9914 73.352C75.5354 74.344 75.8074 75.448 75.8074 76.664C75.8074 77.944 75.5114 79.088 74.9194 80.096C74.3434 81.104 73.5434 81.904 72.5194 82.496C71.5114 83.072 70.3434 83.36 69.0154 83.36C67.6234 83.36 66.4234 83.064 65.4154 82.472C64.4074 81.864 63.6314 81.056 63.0874 80.048C62.5434 79.04 62.2714 77.936 62.2714 76.736C62.2714 75.456 62.5594 74.312 63.1354 73.304C63.7274 72.296 64.5354 71.504 65.5594 70.928C66.5834 70.336 67.7514 70.04 69.0634 70.04ZM69.3994 82.328C69.9914 82.328 70.4554 82.12 70.7914 81.704C71.1274 81.272 71.3674 80.696 71.5114 79.976C71.6554 79.24 71.7274 78.416 71.7274 77.504C71.7274 76.336 71.6154 75.272 71.3914 74.312C71.1834 73.336 70.8554 72.552 70.4074 71.96C69.9594 71.368 69.3834 71.072 68.6794 71.072C68.1034 71.072 67.6394 71.288 67.2874 71.72C66.9514 72.136 66.7114 72.704 66.5674 73.424C66.4234 74.144 66.3514 74.968 66.3514 75.896C66.3514 77.048 66.4554 78.112 66.6634 79.088C66.8874 80.064 67.2234 80.848 67.6714 81.44C68.1194 82.032 68.6954 82.328 69.3994 82.328ZM79.6579 80.6C79.4179 81.144 79.4099 81.584 79.6339 81.92C79.8739 82.24 80.2899 82.416 80.8819 82.448V83H77.0419V82.448C77.2659 82.416 77.4819 82.24 77.6899 81.92C77.9139 81.584 78.1459 81.144 78.3859 80.6L82.1059 72.152C82.2659 71.8 82.4099 71.432 82.5379 71.048C82.6819 70.664 82.8099 70.264 82.9219 69.848H84.1459C84.3699 70.696 84.6259 71.464 84.9139 72.152L88.5619 80.6C88.8019 81.144 88.9939 81.544 89.1379 81.8C89.2979 82.056 89.4419 82.224 89.5699 82.304C89.6979 82.368 89.8499 82.416 90.0259 82.448V83H83.9539V82.448C84.4659 82.416 84.7619 82.232 84.8419 81.896C84.9219 81.56 84.8419 81.128 84.6019 80.6L82.1299 75.08H82.0819L79.6579 80.6ZM104.527 79.016C104.527 79.768 104.327 80.448 103.927 81.056C103.543 81.664 102.919 82.144 102.055 82.496C101.207 82.832 100.087 83 98.6946 83H91.7826V82.448C92.1346 82.416 92.3986 82.296 92.5746 82.088C92.7666 81.88 92.8626 81.384 92.8626 80.6V72.8C92.8626 72.016 92.7506 71.52 92.5266 71.312C92.3186 71.088 91.9506 70.968 91.4226 70.952V70.4H97.6626V70.952C97.3106 70.968 97.0386 71.088 96.8466 71.312C96.6706 71.52 96.5826 72.016 96.5826 72.8V75.488H98.5506C100.119 75.488 101.335 75.648 102.199 75.968C103.063 76.272 103.663 76.688 103.999 77.216C104.351 77.744 104.527 78.344 104.527 79.016ZM96.5826 80.6C96.5826 81.16 96.6706 81.528 96.8466 81.704C97.0226 81.88 97.4066 81.968 97.9986 81.968C98.7506 81.968 99.3826 81.72 99.8946 81.224C100.423 80.728 100.687 80.032 100.687 79.136C100.687 78.32 100.487 77.688 100.087 77.24C99.6866 76.792 99.0546 76.568 98.1906 76.568H96.5826V80.6ZM119.069 80.528C119.533 81.296 119.957 81.808 120.341 82.064C120.725 82.32 121.069 82.448 121.373 82.448V83C121.053 83.112 120.669 83.2 120.221 83.264C119.789 83.328 119.365 83.36 118.949 83.36C118.245 83.36 117.653 83.248 117.173 83.024C116.693 82.8 116.285 82.496 115.949 82.112C115.613 81.728 115.293 81.296 114.989 80.816L112.997 77.624C112.821 77.336 112.677 77.16 112.565 77.096C112.469 77.032 112.349 77 112.205 77C112.045 77 111.909 77.064 111.797 77.192C111.701 77.32 111.653 77.528 111.653 77.816L111.677 80.6C111.661 81.384 111.773 81.88 112.013 82.088C112.269 82.296 112.717 82.416 113.357 82.448V83H106.853V82.448C107.205 82.416 107.469 82.296 107.645 82.088C107.837 81.88 107.933 81.384 107.933 80.6V72.8C107.933 72.016 107.821 71.52 107.597 71.312C107.389 71.088 107.021 70.968 106.493 70.952V70.4H112.733V70.952C112.381 70.968 112.109 71.088 111.917 71.312C111.741 71.52 111.653 72.016 111.653 72.8V76.04H111.701L115.757 72.8C116.317 72.368 116.597 71.992 116.597 71.672C116.597 71.24 116.205 71 115.421 70.952V70.4H120.269V70.952C119.917 71.032 119.549 71.2 119.165 71.456C118.797 71.696 118.373 72.024 117.893 72.44L115.733 74.288C115.525 74.48 115.525 74.744 115.733 75.08L119.069 80.528ZM129.063 70.04C130.455 70.04 131.655 70.344 132.663 70.952C133.671 71.544 134.447 72.344 134.991 73.352C135.535 74.344 135.807 75.448 135.807 76.664C135.807 77.944 135.511 79.088 134.919 80.096C134.343 81.104 133.543 81.904 132.519 82.496C131.511 83.072 130.343 83.36 129.015 83.36C127.623 83.36 126.423 83.064 125.415 82.472C124.407 81.864 123.631 81.056 123.087 80.048C122.543 79.04 122.271 77.936 122.271 76.736C122.271 75.456 122.559 74.312 123.135 73.304C123.727 72.296 124.535 71.504 125.559 70.928C126.583 70.336 127.751 70.04 129.063 70.04ZM129.399 82.328C129.991 82.328 130.455 82.12 130.791 81.704C131.127 81.272 131.367 80.696 131.511 79.976C131.655 79.24 131.727 78.416 131.727 77.504C131.727 76.336 131.615 75.272 131.391 74.312C131.183 73.336 130.855 72.552 130.407 71.96C129.959 71.368 129.383 71.072 128.679 71.072C128.103 71.072 127.639 71.288 127.287 71.72C126.951 72.136 126.711 72.704 126.567 73.424C126.423 74.144 126.351 74.968 126.351 75.896C126.351 77.048 126.455 78.112 126.663 79.088C126.887 80.064 127.223 80.848 127.671 81.44C128.119 82.032 128.695 82.328 129.399 82.328ZM157.659 79.016C157.659 79.768 157.459 80.448 157.059 81.056C156.675 81.664 156.051 82.144 155.187 82.496C154.339 82.832 153.219 83 151.827 83H144.915V82.448C145.267 82.416 145.531 82.296 145.707 82.088C145.899 81.88 145.995 81.384 145.995 80.6V72.8C145.995 72.016 145.883 71.52 145.659 71.312C145.451 71.088 145.083 70.968 144.555 70.952V70.4H155.979V74H155.427C155.395 73.072 155.187 72.416 154.803 72.032C154.435 71.632 153.971 71.432 153.411 71.432H150.771C150.435 71.432 150.171 71.52 149.979 71.696C149.803 71.872 149.715 72.24 149.715 72.8V75.488H151.683C153.251 75.488 154.467 75.648 155.331 75.968C156.195 76.272 156.795 76.688 157.131 77.216C157.483 77.744 157.659 78.344 157.659 79.016ZM149.715 80.6C149.715 81.16 149.803 81.528 149.979 81.704C150.155 81.88 150.539 81.968 151.131 81.968C151.883 81.968 152.515 81.72 153.027 81.224C153.555 80.728 153.819 80.032 153.819 79.136C153.819 78.32 153.619 77.688 153.219 77.24C152.819 76.792 152.187 76.568 151.323 76.568H149.715V80.6ZM160.197 83V82.448C160.533 82.416 160.797 82.296 160.989 82.088C161.181 81.88 161.277 81.384 161.277 80.6V72.8C161.277 72.016 161.165 71.52 160.941 71.312C160.733 71.088 160.365 70.968 159.837 70.952V70.4H169.821V73.52H169.269C169.237 72.832 169.021 72.312 168.621 71.96C168.221 71.608 167.685 71.432 167.013 71.432H166.053C165.717 71.432 165.453 71.52 165.261 71.696C165.085 71.872 164.997 72.24 164.997 72.8V75.848C165.125 75.752 165.277 75.688 165.453 75.656C165.645 75.624 165.869 75.608 166.125 75.608H167.253C167.621 75.608 167.949 75.512 168.237 75.32C168.541 75.128 168.701 74.792 168.717 74.312H169.269V77.912H168.717C168.701 77.32 168.541 76.96 168.237 76.832C167.949 76.704 167.621 76.64 167.253 76.64H166.173C165.741 76.64 165.437 76.712 165.261 76.856C165.085 77 164.997 77.28 164.997 77.696V80.6C164.997 81.16 165.117 81.528 165.357 81.704C165.613 81.88 166.101 81.968 166.821 81.968H167.661C168.381 81.968 168.997 81.72 169.509 81.224C170.037 80.728 170.333 80.08 170.397 79.28H170.949L170.757 83H160.197ZM179.928 83.36C178.44 83.36 177.184 83.08 176.16 82.52C175.136 81.944 174.36 81.176 173.832 80.216C173.304 79.24 173.04 78.16 173.04 76.976C173.04 75.6 173.368 74.392 174.024 73.352C174.68 72.312 175.568 71.504 176.688 70.928C177.808 70.336 179.048 70.04 180.408 70.04C181.192 70.04 181.92 70.128 182.592 70.304C183.264 70.48 183.92 70.688 184.56 70.928V74.24H184.008C183.656 73.088 183.152 72.272 182.496 71.792C181.856 71.312 181.16 71.072 180.408 71.072C179.32 71.072 178.496 71.512 177.936 72.392C177.392 73.272 177.12 74.528 177.12 76.16C177.12 76.848 177.176 77.552 177.288 78.272C177.4 78.992 177.576 79.664 177.816 80.288C178.072 80.896 178.408 81.392 178.824 81.776C179.256 82.144 179.792 82.328 180.432 82.328C181.328 82.328 182.144 81.984 182.88 81.296C183.632 80.608 184.16 79.656 184.464 78.44H185.016L184.824 81.608C184.312 82.184 183.624 82.624 182.76 82.928C181.912 83.216 180.968 83.36 179.928 83.36ZM200.438 72.8V80.6C200.438 81.384 200.542 81.88 200.75 82.088C200.974 82.296 201.35 82.416 201.878 82.448V83H195.638V82.448C195.99 82.416 196.254 82.296 196.43 82.088C196.622 81.88 196.718 81.384 196.718 80.6V72.8C196.718 72.24 196.606 71.872 196.382 71.696C196.174 71.52 195.806 71.432 195.278 71.432H193.358C193.006 71.432 192.734 71.52 192.542 71.696C192.366 71.872 192.278 72.24 192.278 72.8V80.6C192.278 81.384 192.382 81.88 192.59 82.088C192.814 82.296 193.19 82.416 193.718 82.448V83H187.478V82.448C187.83 82.416 188.094 82.296 188.27 82.088C188.462 81.88 188.558 81.384 188.558 80.6V72.8C188.558 72.016 188.446 71.52 188.222 71.312C188.014 71.088 187.646 70.968 187.118 70.952V70.4H201.518V70.952C201.166 70.968 200.894 71.088 200.702 71.312C200.526 71.52 200.438 72.016 200.438 72.8ZM205.986 80.6C205.746 81.144 205.738 81.584 205.962 81.92C206.202 82.24 206.618 82.416 207.21 82.448V83H203.37V82.448C203.594 82.416 203.81 82.24 204.018 81.92C204.242 81.584 204.474 81.144 204.714 80.6L208.434 72.152C208.594 71.8 208.738 71.432 208.866 71.048C209.01 70.664 209.138 70.264 209.25 69.848H210.474C210.698 70.696 210.954 71.464 211.242 72.152L214.89 80.6C215.13 81.144 215.322 81.544 215.466 81.8C215.626 82.056 215.77 82.224 215.898 82.304C216.026 82.368 216.178 82.416 216.354 82.448V83H210.282V82.448C210.794 82.416 211.09 82.232 211.17 81.896C211.25 81.56 211.17 81.128 210.93 80.6L208.458 75.08H208.41L205.986 80.6ZM228.695 80.6C228.935 81.144 229.127 81.544 229.271 81.8C229.431 82.056 229.575 82.224 229.703 82.304C229.831 82.368 229.983 82.416 230.159 82.448V83H224.087V82.448C224.599 82.416 224.895 82.232 224.975 81.896C225.055 81.56 224.975 81.128 224.735 80.6L224.207 79.4C224.127 79.48 224.007 79.536 223.847 79.568C223.687 79.584 223.519 79.592 223.343 79.592H221.159C220.775 79.592 220.495 79.648 220.319 79.76C220.159 79.856 219.999 80.096 219.839 80.48L219.791 80.6C219.551 81.144 219.543 81.584 219.767 81.92C220.007 82.24 220.423 82.416 221.015 82.448V83H217.175V82.448C217.399 82.416 217.615 82.24 217.823 81.92C218.047 81.584 218.279 81.144 218.519 80.6L222.239 72.152C222.399 71.8 222.543 71.432 222.671 71.048C222.815 70.664 222.943 70.264 223.055 69.848H224.279C224.503 70.696 224.759 71.464 225.047 72.152L228.695 80.6ZM223.127 78.56C223.367 78.56 223.527 78.52 223.607 78.44C223.687 78.344 223.663 78.16 223.535 77.888L222.263 75.08H222.215L220.655 78.656C220.735 78.608 220.823 78.584 220.919 78.584C221.015 78.568 221.127 78.56 221.255 78.56H223.127ZM229.46 70.4H241.58V74.36H241.028C240.932 73.496 240.684 72.792 240.284 72.248C239.884 71.704 239.236 71.432 238.34 71.432H237.356V80.6C237.356 81.384 237.46 81.88 237.668 82.088C237.892 82.296 238.268 82.416 238.796 82.448V83H232.556V82.448C232.908 82.416 233.172 82.296 233.348 82.088C233.54 81.88 233.636 81.384 233.636 80.6V71.432H232.628C231.78 71.432 231.156 71.704 230.756 72.248C230.356 72.792 230.108 73.496 230.012 74.36H229.46V70.4ZM256.907 80.6C256.907 81.384 257.011 81.88 257.219 82.088C257.443 82.296 257.819 82.416 258.347 82.448V83H252.107V82.448C252.459 82.416 252.723 82.296 252.899 82.088C253.091 81.88 253.187 81.384 253.187 80.6V76.16C253.075 76.24 252.939 76.296 252.779 76.328C252.619 76.344 252.435 76.352 252.227 76.352H249.395C249.027 76.352 248.763 76.408 248.603 76.52C248.459 76.632 248.387 76.856 248.387 77.192V80.6C248.387 81.384 248.491 81.88 248.699 82.088C248.923 82.296 249.299 82.416 249.827 82.448V83H243.587V82.448C243.939 82.416 244.203 82.296 244.379 82.088C244.571 81.88 244.667 81.384 244.667 80.6V72.8C244.667 72.016 244.555 71.52 244.331 71.312C244.123 71.088 243.755 70.968 243.227 70.952V70.4H249.467V70.952C249.115 70.968 248.843 71.088 248.651 71.312C248.475 71.52 248.387 72.016 248.387 72.8V75.512C248.579 75.384 248.899 75.32 249.347 75.32H252.203C252.571 75.32 252.827 75.264 252.971 75.152C253.115 75.04 253.187 74.816 253.187 74.48V72.8C253.187 72.016 253.075 71.52 252.851 71.312C252.643 71.088 252.275 70.968 251.747 70.952V70.4H257.987V70.952C257.635 70.968 257.363 71.088 257.171 71.312C256.995 71.52 256.907 72.016 256.907 72.8V80.6ZM267.415 70.04C268.807 70.04 270.007 70.344 271.015 70.952C272.023 71.544 272.799 72.344 273.343 73.352C273.887 74.344 274.159 75.448 274.159 76.664C274.159 77.944 273.863 79.088 273.271 80.096C272.695 81.104 271.895 81.904 270.871 82.496C269.863 83.072 268.695 83.36 267.367 83.36C265.975 83.36 264.775 83.064 263.767 82.472C262.759 81.864 261.983 81.056 261.439 80.048C260.895 79.04 260.623 77.936 260.623 76.736C260.623 75.456 260.911 74.312 261.487 73.304C262.079 72.296 262.887 71.504 263.911 70.928C264.935 70.336 266.103 70.04 267.415 70.04ZM267.751 82.328C268.343 82.328 268.807 82.12 269.143 81.704C269.479 81.272 269.719 80.696 269.863 79.976C270.007 79.24 270.079 78.416 270.079 77.504C270.079 76.336 269.967 75.272 269.743 74.312C269.535 73.336 269.207 72.552 268.759 71.96C268.311 71.368 267.735 71.072 267.031 71.072C266.455 71.072 265.991 71.288 265.639 71.72C265.303 72.136 265.063 72.704 264.919 73.424C264.775 74.144 264.703 74.968 264.703 75.896C264.703 77.048 264.807 78.112 265.015 79.088C265.239 80.064 265.575 80.848 266.023 81.44C266.471 82.032 267.047 82.328 267.751 82.328ZM287.587 83H283.267V82.448C283.619 82.416 283.883 82.296 284.059 82.088C284.251 81.88 284.347 81.384 284.347 80.6V72.8C284.347 72.016 284.235 71.52 284.011 71.312C283.803 71.088 283.435 70.968 282.907 70.952V70.4H289.147V70.952C288.795 70.968 288.523 71.088 288.331 71.312C288.155 71.52 288.067 72.016 288.067 72.8V79.712L293.347 70.4H297.667V70.952C297.315 70.968 297.043 71.088 296.851 71.312C296.675 71.52 296.587 72.016 296.587 72.8V80.6C296.587 81.384 296.691 81.88 296.899 82.088C297.123 82.296 297.499 82.416 298.027 82.448V83H291.787V82.448C292.139 82.416 292.403 82.296 292.579 82.088C292.771 81.88 292.867 81.384 292.867 80.6V73.688L287.587 83ZM319.659 79.016C319.659 79.768 319.459 80.448 319.059 81.056C318.675 81.664 318.051 82.144 317.187 82.496C316.339 82.832 315.219 83 313.827 83H306.915V82.448C307.267 82.416 307.531 82.296 307.707 82.088C307.899 81.88 307.995 81.384 307.995 80.6V72.8C307.995 72.016 307.883 71.52 307.659 71.312C307.451 71.088 307.083 70.968 306.555 70.952V70.4H317.979V74H317.427C317.395 73.072 317.187 72.416 316.803 72.032C316.435 71.632 315.971 71.432 315.411 71.432H312.771C312.435 71.432 312.171 71.52 311.979 71.696C311.803 71.872 311.715 72.24 311.715 72.8V75.488H313.683C315.251 75.488 316.467 75.648 317.331 75.968C318.195 76.272 318.795 76.688 319.131 77.216C319.483 77.744 319.659 78.344 319.659 79.016ZM311.715 80.6C311.715 81.16 311.803 81.528 311.979 81.704C312.155 81.88 312.539 81.968 313.131 81.968C313.883 81.968 314.515 81.72 315.027 81.224C315.555 80.728 315.819 80.032 315.819 79.136C315.819 78.32 315.619 77.688 315.219 77.24C314.819 76.792 314.187 76.568 313.323 76.568H311.715V80.6ZM334.941 79.016C334.941 79.768 334.741 80.448 334.341 81.056C333.957 81.664 333.333 82.144 332.469 82.496C331.621 82.832 330.501 83 329.109 83H322.197V82.448C322.549 82.416 322.813 82.296 322.989 82.088C323.181 81.88 323.277 81.384 323.277 80.6V72.8C323.277 72.016 323.165 71.52 322.941 71.312C322.733 71.088 322.365 70.968 321.837 70.952V70.4H328.077V70.952C327.725 70.968 327.453 71.088 327.261 71.312C327.085 71.52 326.997 72.016 326.997 72.8V75.488H328.965C330.533 75.488 331.749 75.648 332.613 75.968C333.477 76.272 334.077 76.688 334.413 77.216C334.765 77.744 334.941 78.344 334.941 79.016ZM340.677 80.6C340.677 81.384 340.781 81.88 340.989 82.088C341.213 82.296 341.589 82.416 342.117 82.448V83H335.877V82.448C336.229 82.416 336.493 82.296 336.669 82.088C336.861 81.88 336.957 81.384 336.957 80.6V72.8C336.957 72.016 336.845 71.52 336.621 71.312C336.413 71.088 336.045 70.968 335.517 70.952V70.4H341.757V70.952C341.405 70.968 341.133 71.088 340.941 71.312C340.765 71.52 340.677 72.016 340.677 72.8V80.6ZM326.997 80.6C326.997 81.16 327.085 81.528 327.261 81.704C327.437 81.88 327.821 81.968 328.413 81.968C329.165 81.968 329.797 81.72 330.309 81.224C330.837 80.728 331.101 80.032 331.101 79.136C331.101 78.32 330.901 77.688 330.501 77.24C330.101 76.792 329.469 76.568 328.605 76.568H326.997V80.6ZM351.421 83.36C349.933 83.36 348.677 83.08 347.653 82.52C346.629 81.944 345.853 81.176 345.325 80.216C344.797 79.24 344.533 78.16 344.533 76.976C344.533 75.6 344.861 74.392 345.517 73.352C346.173 72.312 347.061 71.504 348.181 70.928C349.301 70.336 350.541 70.04 351.901 70.04C352.685 70.04 353.413 70.128 354.085 70.304C354.757 70.48 355.413 70.688 356.053 70.928V74.24H355.501C355.149 73.088 354.645 72.272 353.989 71.792C353.349 71.312 352.653 71.072 351.901 71.072C350.813 71.072 349.989 71.512 349.429 72.392C348.885 73.272 348.613 74.528 348.613 76.16C348.613 76.848 348.669 77.552 348.781 78.272C348.893 78.992 349.069 79.664 349.309 80.288C349.565 80.896 349.901 81.392 350.317 81.776C350.749 82.144 351.285 82.328 351.925 82.328C352.821 82.328 353.637 81.984 354.373 81.296C355.125 80.608 355.653 79.656 355.957 78.44H356.509L356.317 81.608C355.805 82.184 355.117 82.624 354.253 82.928C353.405 83.216 352.461 83.36 351.421 83.36ZM357.968 70.4H370.088V74.36H369.536C369.44 73.496 369.192 72.792 368.792 72.248C368.392 71.704 367.744 71.432 366.848 71.432H365.864V80.6C365.864 81.384 365.968 81.88 366.176 82.088C366.4 82.296 366.776 82.416 367.304 82.448V83H361.064V82.448C361.416 82.416 361.68 82.296 361.856 82.088C362.048 81.88 362.144 81.384 362.144 80.6V71.432H361.136C360.288 71.432 359.664 71.704 359.264 72.248C358.864 72.792 358.616 73.496 358.52 74.36H357.968V70.4ZM372.095 83V82.448C372.447 82.416 372.711 82.296 372.887 82.088C373.079 81.88 373.175 81.384 373.175 80.6V72.8C373.175 72.016 373.063 71.52 372.839 71.312C372.631 71.088 372.263 70.968 371.735 70.952V70.4H373.175C374.343 70.4 375.375 70.384 376.271 70.352C377.167 70.304 377.887 70.28 378.431 70.28C379.935 70.28 381.111 70.424 381.959 70.712C382.807 70.984 383.399 71.36 383.735 71.84C384.087 72.304 384.263 72.84 384.263 73.448C384.263 74.12 383.999 74.776 383.471 75.416C382.943 76.056 382.167 76.552 381.143 76.904C380.119 77.256 378.863 77.36 377.375 77.216V76.376C378.319 76.424 379.023 76.168 379.487 75.608C379.951 75.032 380.183 74.376 380.183 73.64C380.183 72.872 379.991 72.296 379.607 71.912C379.239 71.512 378.735 71.312 378.095 71.312C377.695 71.312 377.391 71.408 377.183 71.6C376.991 71.776 376.895 72.176 376.895 72.8V80.6C376.895 81.384 377.015 81.88 377.255 82.088C377.495 82.296 377.935 82.416 378.575 82.448V83H372.095ZM393.087 70.04C394.479 70.04 395.679 70.344 396.687 70.952C397.695 71.544 398.471 72.344 399.015 73.352C399.559 74.344 399.831 75.448 399.831 76.664C399.831 77.944 399.535 79.088 398.943 80.096C398.367 81.104 397.567 81.904 396.543 82.496C395.535 83.072 394.367 83.36 393.039 83.36C391.647 83.36 390.447 83.064 389.439 82.472C388.431 81.864 387.655 81.056 387.111 80.048C386.567 79.04 386.295 77.936 386.295 76.736C386.295 75.456 386.583 74.312 387.159 73.304C387.751 72.296 388.559 71.504 389.583 70.928C390.607 70.336 391.775 70.04 393.087 70.04ZM393.423 82.328C394.015 82.328 394.479 82.12 394.815 81.704C395.151 81.272 395.391 80.696 395.535 79.976C395.679 79.24 395.751 78.416 395.751 77.504C395.751 76.336 395.639 75.272 395.415 74.312C395.207 73.336 394.879 72.552 394.431 71.96C393.983 71.368 393.407 71.072 392.703 71.072C392.127 71.072 391.663 71.288 391.311 71.72C390.975 72.136 390.735 72.704 390.591 73.424C390.447 74.144 390.375 74.968 390.375 75.896C390.375 77.048 390.479 78.112 390.687 79.088C390.911 80.064 391.247 80.848 391.695 81.44C392.143 82.032 392.719 82.328 393.423 82.328Z" data-figma-gradient-fill="{&#34;type&#34;:&#34;GRADIENT_DIAMOND&#34;,&#34;stops&#34;:[{&#34;color&#34;:{&#34;r&#34;:1.0,&#34;g&#34;:0.91813933849334717,&#34;b&#34;:0.69711536169052124,&#34;a&#34;:1.0},&#34;position&#34;:0.0},{&#34;color&#34;:{&#34;r&#34;:0.87450981140136719,&#34;g&#34;:0.63921570777893066,&#34;b&#34;:0.0039215688593685627,&#34;a&#34;:1.0},&#34;position&#34;:1.0}],&#34;stopsVar&#34;:[{&#34;color&#34;:{&#34;r&#34;:1.0,&#34;g&#34;:0.91813933849334717,&#34;b&#34;:0.69711536169052124,&#34;a&#34;:1.0},&#34;position&#34;:0.0},{&#34;color&#34;:{&#34;r&#34;:0.87450981140136719,&#34;g&#34;:0.63921570777893066,&#34;b&#34;:0.0039215688593685627,&#34;a&#34;:1.0},&#34;position&#34;:1.0}],&#34;transform&#34;:{&#34;m00&#34;:366.0,&#34;m01&#34;:1.8323898315429688,&#34;m02&#34;:35.083801269531250,&#34;m10&#34;:-5.9999995231628418,&#34;m11&#34;:111.77576446533203,&#34;m12&#34;:25.612119674682617},&#34;opacity&#34;:1.0,&#34;blendMode&#34;:&#34;NORMAL&#34;,&#34;visible&#34;:true}"/>
    <defs>
    <clipPath id="paint9_diamond_0_1_clip_path"><path d="M46.696 69.152L43.48 70.808L45.112 74.048L44.656 74.384L42.088 71.84L39.52 74.384L39.064 74.048L40.696 70.808L37.48 69.152L37.648 68.624L41.248 69.176L41.824 65.6H42.352L42.928 69.176L46.528 68.624L46.696 69.152ZM48.5224 70.4H60.6424V74.36H60.0904C59.9944 73.496 59.7464 72.792 59.3464 72.248C58.9464 71.704 58.2984 71.432 57.4024 71.432H56.4184V80.6C56.4184 81.384 56.5224 81.88 56.7304 82.088C56.9544 82.296 57.3304 82.416 57.8584 82.448V83H51.6184V82.448C51.9704 82.416 52.2344 82.296 52.4104 82.088C52.6024 81.88 52.6984 81.384 52.6984 80.6V71.432H51.6904C50.8424 71.432 50.2184 71.704 49.8184 72.248C49.4184 72.792 49.1704 73.496 49.0744 74.36H48.5224V70.4ZM69.0634 70.04C70.4554 70.04 71.6554 70.344 72.6634 70.952C73.6714 71.544 74.4474 72.344 74.9914 73.352C75.5354 74.344 75.8074 75.448 75.8074 76.664C75.8074 77.944 75.5114 79.088 74.9194 80.096C74.3434 81.104 73.5434 81.904 72.5194 82.496C71.5114 83.072 70.3434 83.36 69.0154 83.36C67.6234 83.36 66.4234 83.064 65.4154 82.472C64.4074 81.864 63.6314 81.056 63.0874 80.048C62.5434 79.04 62.2714 77.936 62.2714 76.736C62.2714 75.456 62.5594 74.312 63.1354 73.304C63.7274 72.296 64.5354 71.504 65.5594 70.928C66.5834 70.336 67.7514 70.04 69.0634 70.04ZM69.3994 82.328C69.9914 82.328 70.4554 82.12 70.7914 81.704C71.1274 81.272 71.3674 80.696 71.5114 79.976C71.6554 79.24 71.7274 78.416 71.7274 77.504C71.7274 76.336 71.6154 75.272 71.3914 74.312C71.1834 73.336 70.8554 72.552 70.4074 71.96C69.9594 71.368 69.3834 71.072 68.6794 71.072C68.1034 71.072 67.6394 71.288 67.2874 71.72C66.9514 72.136 66.7114 72.704 66.5674 73.424C66.4234 74.144 66.3514 74.968 66.3514 75.896C66.3514 77.048 66.4554 78.112 66.6634 79.088C66.8874 80.064 67.2234 80.848 67.6714 81.44C68.1194 82.032 68.6954 82.328 69.3994 82.328ZM79.6579 80.6C79.4179 81.144 79.4099 81.584 79.6339 81.92C79.8739 82.24 80.2899 82.416 80.8819 82.448V83H77.0419V82.448C77.2659 82.416 77.4819 82.24 77.6899 81.92C77.9139 81.584 78.1459 81.144 78.3859 80.6L82.1059 72.152C82.2659 71.8 82.4099 71.432 82.5379 71.048C82.6819 70.664 82.8099 70.264 82.9219 69.848H84.1459C84.3699 70.696 84.6259 71.464 84.9139 72.152L88.5619 80.6C88.8019 81.144 88.9939 81.544 89.1379 81.8C89.2979 82.056 89.4419 82.224 89.5699 82.304C89.6979 82.368 89.8499 82.416 90.0259 82.448V83H83.9539V82.448C84.4659 82.416 84.7619 82.232 84.8419 81.896C84.9219 81.56 84.8419 81.128 84.6019 80.6L82.1299 75.08H82.0819L79.6579 80.6ZM104.527 79.016C104.527 79.768 104.327 80.448 103.927 81.056C103.543 81.664 102.919 82.144 102.055 82.496C101.207 82.832 100.087 83 98.6946 83H91.7826V82.448C92.1346 82.416 92.3986 82.296 92.5746 82.088C92.7666 81.88 92.8626 81.384 92.8626 80.6V72.8C92.8626 72.016 92.7506 71.52 92.5266 71.312C92.3186 71.088 91.9506 70.968 91.4226 70.952V70.4H97.6626V70.952C97.3106 70.968 97.0386 71.088 96.8466 71.312C96.6706 71.52 96.5826 72.016 96.5826 72.8V75.488H98.5506C100.119 75.488 101.335 75.648 102.199 75.968C103.063 76.272 103.663 76.688 103.999 77.216C104.351 77.744 104.527 78.344 104.527 79.016ZM96.5826 80.6C96.5826 81.16 96.6706 81.528 96.8466 81.704C97.0226 81.88 97.4066 81.968 97.9986 81.968C98.7506 81.968 99.3826 81.72 99.8946 81.224C100.423 80.728 100.687 80.032 100.687 79.136C100.687 78.32 100.487 77.688 100.087 77.24C99.6866 76.792 99.0546 76.568 98.1906 76.568H96.5826V80.6ZM119.069 80.528C119.533 81.296 119.957 81.808 120.341 82.064C120.725 82.32 121.069 82.448 121.373 82.448V83C121.053 83.112 120.669 83.2 120.221 83.264C119.789 83.328 119.365 83.36 118.949 83.36C118.245 83.36 117.653 83.248 117.173 83.024C116.693 82.8 116.285 82.496 115.949 82.112C115.613 81.728 115.293 81.296 114.989 80.816L112.997 77.624C112.821 77.336 112.677 77.16 112.565 77.096C112.469 77.032 112.349 77 112.205 77C112.045 77 111.909 77.064 111.797 77.192C111.701 77.32 111.653 77.528 111.653 77.816L111.677 80.6C111.661 81.384 111.773 81.88 112.013 82.088C112.269 82.296 112.717 82.416 113.357 82.448V83H106.853V82.448C107.205 82.416 107.469 82.296 107.645 82.088C107.837 81.88 107.933 81.384 107.933 80.6V72.8C107.933 72.016 107.821 71.52 107.597 71.312C107.389 71.088 107.021 70.968 106.493 70.952V70.4H112.733V70.952C112.381 70.968 112.109 71.088 111.917 71.312C111.741 71.52 111.653 72.016 111.653 72.8V76.04H111.701L115.757 72.8C116.317 72.368 116.597 71.992 116.597 71.672C116.597 71.24 116.205 71 115.421 70.952V70.4H120.269V70.952C119.917 71.032 119.549 71.2 119.165 71.456C118.797 71.696 118.373 72.024 117.893 72.44L115.733 74.288C115.525 74.48 115.525 74.744 115.733 75.08L119.069 80.528ZM129.063 70.04C130.455 70.04 131.655 70.344 132.663 70.952C133.671 71.544 134.447 72.344 134.991 73.352C135.535 74.344 135.807 75.448 135.807 76.664C135.807 77.944 135.511 79.088 134.919 80.096C134.343 81.104 133.543 81.904 132.519 82.496C131.511 83.072 130.343 83.36 129.015 83.36C127.623 83.36 126.423 83.064 125.415 82.472C124.407 81.864 123.631 81.056 123.087 80.048C122.543 79.04 122.271 77.936 122.271 76.736C122.271 75.456 122.559 74.312 123.135 73.304C123.727 72.296 124.535 71.504 125.559 70.928C126.583 70.336 127.751 70.04 129.063 70.04ZM129.399 82.328C129.991 82.328 130.455 82.12 130.791 81.704C131.127 81.272 131.367 80.696 131.511 79.976C131.655 79.24 131.727 78.416 131.727 77.504C131.727 76.336 131.615 75.272 131.391 74.312C131.183 73.336 130.855 72.552 130.407 71.96C129.959 71.368 129.383 71.072 128.679 71.072C128.103 71.072 127.639 71.288 127.287 71.72C126.951 72.136 126.711 72.704 126.567 73.424C126.423 74.144 126.351 74.968 126.351 75.896C126.351 77.048 126.455 78.112 126.663 79.088C126.887 80.064 127.223 80.848 127.671 81.44C128.119 82.032 128.695 82.328 129.399 82.328ZM157.659 79.016C157.659 79.768 157.459 80.448 157.059 81.056C156.675 81.664 156.051 82.144 155.187 82.496C154.339 82.832 153.219 83 151.827 83H144.915V82.448C145.267 82.416 145.531 82.296 145.707 82.088C145.899 81.88 145.995 81.384 145.995 80.6V72.8C145.995 72.016 145.883 71.52 145.659 71.312C145.451 71.088 145.083 70.968 144.555 70.952V70.4H155.979V74H155.427C155.395 73.072 155.187 72.416 154.803 72.032C154.435 71.632 153.971 71.432 153.411 71.432H150.771C150.435 71.432 150.171 71.52 149.979 71.696C149.803 71.872 149.715 72.24 149.715 72.8V75.488H151.683C153.251 75.488 154.467 75.648 155.331 75.968C156.195 76.272 156.795 76.688 157.131 77.216C157.483 77.744 157.659 78.344 157.659 79.016ZM149.715 80.6C149.715 81.16 149.803 81.528 149.979 81.704C150.155 81.88 150.539 81.968 151.131 81.968C151.883 81.968 152.515 81.72 153.027 81.224C153.555 80.728 153.819 80.032 153.819 79.136C153.819 78.32 153.619 77.688 153.219 77.24C152.819 76.792 152.187 76.568 151.323 76.568H149.715V80.6ZM160.197 83V82.448C160.533 82.416 160.797 82.296 160.989 82.088C161.181 81.88 161.277 81.384 161.277 80.6V72.8C161.277 72.016 161.165 71.52 160.941 71.312C160.733 71.088 160.365 70.968 159.837 70.952V70.4H169.821V73.52H169.269C169.237 72.832 169.021 72.312 168.621 71.96C168.221 71.608 167.685 71.432 167.013 71.432H166.053C165.717 71.432 165.453 71.52 165.261 71.696C165.085 71.872 164.997 72.24 164.997 72.8V75.848C165.125 75.752 165.277 75.688 165.453 75.656C165.645 75.624 165.869 75.608 166.125 75.608H167.253C167.621 75.608 167.949 75.512 168.237 75.32C168.541 75.128 168.701 74.792 168.717 74.312H169.269V77.912H168.717C168.701 77.32 168.541 76.96 168.237 76.832C167.949 76.704 167.621 76.64 167.253 76.64H166.173C165.741 76.64 165.437 76.712 165.261 76.856C165.085 77 164.997 77.28 164.997 77.696V80.6C164.997 81.16 165.117 81.528 165.357 81.704C165.613 81.88 166.101 81.968 166.821 81.968H167.661C168.381 81.968 168.997 81.72 169.509 81.224C170.037 80.728 170.333 80.08 170.397 79.28H170.949L170.757 83H160.197ZM179.928 83.36C178.44 83.36 177.184 83.08 176.16 82.52C175.136 81.944 174.36 81.176 173.832 80.216C173.304 79.24 173.04 78.16 173.04 76.976C173.04 75.6 173.368 74.392 174.024 73.352C174.68 72.312 175.568 71.504 176.688 70.928C177.808 70.336 179.048 70.04 180.408 70.04C181.192 70.04 181.92 70.128 182.592 70.304C183.264 70.48 183.92 70.688 184.56 70.928V74.24H184.008C183.656 73.088 183.152 72.272 182.496 71.792C181.856 71.312 181.16 71.072 180.408 71.072C179.32 71.072 178.496 71.512 177.936 72.392C177.392 73.272 177.12 74.528 177.12 76.16C177.12 76.848 177.176 77.552 177.288 78.272C177.4 78.992 177.576 79.664 177.816 80.288C178.072 80.896 178.408 81.392 178.824 81.776C179.256 82.144 179.792 82.328 180.432 82.328C181.328 82.328 182.144 81.984 182.88 81.296C183.632 80.608 184.16 79.656 184.464 78.44H185.016L184.824 81.608C184.312 82.184 183.624 82.624 182.76 82.928C181.912 83.216 180.968 83.36 179.928 83.36ZM200.438 72.8V80.6C200.438 81.384 200.542 81.88 200.75 82.088C200.974 82.296 201.35 82.416 201.878 82.448V83H195.638V82.448C195.99 82.416 196.254 82.296 196.43 82.088C196.622 81.88 196.718 81.384 196.718 80.6V72.8C196.718 72.24 196.606 71.872 196.382 71.696C196.174 71.52 195.806 71.432 195.278 71.432H193.358C193.006 71.432 192.734 71.52 192.542 71.696C192.366 71.872 192.278 72.24 192.278 72.8V80.6C192.278 81.384 192.382 81.88 192.59 82.088C192.814 82.296 193.19 82.416 193.718 82.448V83H187.478V82.448C187.83 82.416 188.094 82.296 188.27 82.088C188.462 81.88 188.558 81.384 188.558 80.6V72.8C188.558 72.016 188.446 71.52 188.222 71.312C188.014 71.088 187.646 70.968 187.118 70.952V70.4H201.518V70.952C201.166 70.968 200.894 71.088 200.702 71.312C200.526 71.52 200.438 72.016 200.438 72.8ZM205.986 80.6C205.746 81.144 205.738 81.584 205.962 81.92C206.202 82.24 206.618 82.416 207.21 82.448V83H203.37V82.448C203.594 82.416 203.81 82.24 204.018 81.92C204.242 81.584 204.474 81.144 204.714 80.6L208.434 72.152C208.594 71.8 208.738 71.432 208.866 71.048C209.01 70.664 209.138 70.264 209.25 69.848H210.474C210.698 70.696 210.954 71.464 211.242 72.152L214.89 80.6C215.13 81.144 215.322 81.544 215.466 81.8C215.626 82.056 215.77 82.224 215.898 82.304C216.026 82.368 216.178 82.416 216.354 82.448V83H210.282V82.448C210.794 82.416 211.09 82.232 211.17 81.896C211.25 81.56 211.17 81.128 210.93 80.6L208.458 75.08H208.41L205.986 80.6ZM228.695 80.6C228.935 81.144 229.127 81.544 229.271 81.8C229.431 82.056 229.575 82.224 229.703 82.304C229.831 82.368 229.983 82.416 230.159 82.448V83H224.087V82.448C224.599 82.416 224.895 82.232 224.975 81.896C225.055 81.56 224.975 81.128 224.735 80.6L224.207 79.4C224.127 79.48 224.007 79.536 223.847 79.568C223.687 79.584 223.519 79.592 223.343 79.592H221.159C220.775 79.592 220.495 79.648 220.319 79.76C220.159 79.856 219.999 80.096 219.839 80.48L219.791 80.6C219.551 81.144 219.543 81.584 219.767 81.92C220.007 82.24 220.423 82.416 221.015 82.448V83H217.175V82.448C217.399 82.416 217.615 82.24 217.823 81.92C218.047 81.584 218.279 81.144 218.519 80.6L222.239 72.152C222.399 71.8 222.543 71.432 222.671 71.048C222.815 70.664 222.943 70.264 223.055 69.848H224.279C224.503 70.696 224.759 71.464 225.047 72.152L228.695 80.6ZM223.127 78.56C223.367 78.56 223.527 78.52 223.607 78.44C223.687 78.344 223.663 78.16 223.535 77.888L222.263 75.08H222.215L220.655 78.656C220.735 78.608 220.823 78.584 220.919 78.584C221.015 78.568 221.127 78.56 221.255 78.56H223.127ZM229.46 70.4H241.58V74.36H241.028C240.932 73.496 240.684 72.792 240.284 72.248C239.884 71.704 239.236 71.432 238.34 71.432H237.356V80.6C237.356 81.384 237.46 81.88 237.668 82.088C237.892 82.296 238.268 82.416 238.796 82.448V83H232.556V82.448C232.908 82.416 233.172 82.296 233.348 82.088C233.54 81.88 233.636 81.384 233.636 80.6V71.432H232.628C231.78 71.432 231.156 71.704 230.756 72.248C230.356 72.792 230.108 73.496 230.012 74.36H229.46V70.4ZM256.907 80.6C256.907 81.384 257.011 81.88 257.219 82.088C257.443 82.296 257.819 82.416 258.347 82.448V83H252.107V82.448C252.459 82.416 252.723 82.296 252.899 82.088C253.091 81.88 253.187 81.384 253.187 80.6V76.16C253.075 76.24 252.939 76.296 252.779 76.328C252.619 76.344 252.435 76.352 252.227 76.352H249.395C249.027 76.352 248.763 76.408 248.603 76.52C248.459 76.632 248.387 76.856 248.387 77.192V80.6C248.387 81.384 248.491 81.88 248.699 82.088C248.923 82.296 249.299 82.416 249.827 82.448V83H243.587V82.448C243.939 82.416 244.203 82.296 244.379 82.088C244.571 81.88 244.667 81.384 244.667 80.6V72.8C244.667 72.016 244.555 71.52 244.331 71.312C244.123 71.088 243.755 70.968 243.227 70.952V70.4H249.467V70.952C249.115 70.968 248.843 71.088 248.651 71.312C248.475 71.52 248.387 72.016 248.387 72.8V75.512C248.579 75.384 248.899 75.32 249.347 75.32H252.203C252.571 75.32 252.827 75.264 252.971 75.152C253.115 75.04 253.187 74.816 253.187 74.48V72.8C253.187 72.016 253.075 71.52 252.851 71.312C252.643 71.088 252.275 70.968 251.747 70.952V70.4H257.987V70.952C257.635 70.968 257.363 71.088 257.171 71.312C256.995 71.52 256.907 72.016 256.907 72.8V80.6ZM267.415 70.04C268.807 70.04 270.007 70.344 271.015 70.952C272.023 71.544 272.799 72.344 273.343 73.352C273.887 74.344 274.159 75.448 274.159 76.664C274.159 77.944 273.863 79.088 273.271 80.096C272.695 81.104 271.895 81.904 270.871 82.496C269.863 83.072 268.695 83.36 267.367 83.36C265.975 83.36 264.775 83.064 263.767 82.472C262.759 81.864 261.983 81.056 261.439 80.048C260.895 79.04 260.623 77.936 260.623 76.736C260.623 75.456 260.911 74.312 261.487 73.304C262.079 72.296 262.887 71.504 263.911 70.928C264.935 70.336 266.103 70.04 267.415 70.04ZM267.751 82.328C268.343 82.328 268.807 82.12 269.143 81.704C269.479 81.272 269.719 80.696 269.863 79.976C270.007 79.24 270.079 78.416 270.079 77.504C270.079 76.336 269.967 75.272 269.743 74.312C269.535 73.336 269.207 72.552 268.759 71.96C268.311 71.368 267.735 71.072 267.031 71.072C266.455 71.072 265.991 71.288 265.639 71.72C265.303 72.136 265.063 72.704 264.919 73.424C264.775 74.144 264.703 74.968 264.703 75.896C264.703 77.048 264.807 78.112 265.015 79.088C265.239 80.064 265.575 80.848 266.023 81.44C266.471 82.032 267.047 82.328 267.751 82.328ZM287.587 83H283.267V82.448C283.619 82.416 283.883 82.296 284.059 82.088C284.251 81.88 284.347 81.384 284.347 80.6V72.8C284.347 72.016 284.235 71.52 284.011 71.312C283.803 71.088 283.435 70.968 282.907 70.952V70.4H289.147V70.952C288.795 70.968 288.523 71.088 288.331 71.312C288.155 71.52 288.067 72.016 288.067 72.8V79.712L293.347 70.4H297.667V70.952C297.315 70.968 297.043 71.088 296.851 71.312C296.675 71.52 296.587 72.016 296.587 72.8V80.6C296.587 81.384 296.691 81.88 296.899 82.088C297.123 82.296 297.499 82.416 298.027 82.448V83H291.787V82.448C292.139 82.416 292.403 82.296 292.579 82.088C292.771 81.88 292.867 81.384 292.867 80.6V73.688L287.587 83ZM319.659 79.016C319.659 79.768 319.459 80.448 319.059 81.056C318.675 81.664 318.051 82.144 317.187 82.496C316.339 82.832 315.219 83 313.827 83H306.915V82.448C307.267 82.416 307.531 82.296 307.707 82.088C307.899 81.88 307.995 81.384 307.995 80.6V72.8C307.995 72.016 307.883 71.52 307.659 71.312C307.451 71.088 307.083 70.968 306.555 70.952V70.4H317.979V74H317.427C317.395 73.072 317.187 72.416 316.803 72.032C316.435 71.632 315.971 71.432 315.411 71.432H312.771C312.435 71.432 312.171 71.52 311.979 71.696C311.803 71.872 311.715 72.24 311.715 72.8V75.488H313.683C315.251 75.488 316.467 75.648 317.331 75.968C318.195 76.272 318.795 76.688 319.131 77.216C319.483 77.744 319.659 78.344 319.659 79.016ZM311.715 80.6C311.715 81.16 311.803 81.528 311.979 81.704C312.155 81.88 312.539 81.968 313.131 81.968C313.883 81.968 314.515 81.72 315.027 81.224C315.555 80.728 315.819 80.032 315.819 79.136C315.819 78.32 315.619 77.688 315.219 77.24C314.819 76.792 314.187 76.568 313.323 76.568H311.715V80.6ZM334.941 79.016C334.941 79.768 334.741 80.448 334.341 81.056C333.957 81.664 333.333 82.144 332.469 82.496C331.621 82.832 330.501 83 329.109 83H322.197V82.448C322.549 82.416 322.813 82.296 322.989 82.088C323.181 81.88 323.277 81.384 323.277 80.6V72.8C323.277 72.016 323.165 71.52 322.941 71.312C322.733 71.088 322.365 70.968 321.837 70.952V70.4H328.077V70.952C327.725 70.968 327.453 71.088 327.261 71.312C327.085 71.52 326.997 72.016 326.997 72.8V75.488H328.965C330.533 75.488 331.749 75.648 332.613 75.968C333.477 76.272 334.077 76.688 334.413 77.216C334.765 77.744 334.941 78.344 334.941 79.016ZM340.677 80.6C340.677 81.384 340.781 81.88 340.989 82.088C341.213 82.296 341.589 82.416 342.117 82.448V83H335.877V82.448C336.229 82.416 336.493 82.296 336.669 82.088C336.861 81.88 336.957 81.384 336.957 80.6V72.8C336.957 72.016 336.845 71.52 336.621 71.312C336.413 71.088 336.045 70.968 335.517 70.952V70.4H341.757V70.952C341.405 70.968 341.133 71.088 340.941 71.312C340.765 71.52 340.677 72.016 340.677 72.8V80.6ZM326.997 80.6C326.997 81.16 327.085 81.528 327.261 81.704C327.437 81.88 327.821 81.968 328.413 81.968C329.165 81.968 329.797 81.72 330.309 81.224C330.837 80.728 331.101 80.032 331.101 79.136C331.101 78.32 330.901 77.688 330.501 77.24C330.101 76.792 329.469 76.568 328.605 76.568H326.997V80.6ZM351.421 83.36C349.933 83.36 348.677 83.08 347.653 82.52C346.629 81.944 345.853 81.176 345.325 80.216C344.797 79.24 344.533 78.16 344.533 76.976C344.533 75.6 344.861 74.392 345.517 73.352C346.173 72.312 347.061 71.504 348.181 70.928C349.301 70.336 350.541 70.04 351.901 70.04C352.685 70.04 353.413 70.128 354.085 70.304C354.757 70.48 355.413 70.688 356.053 70.928V74.24H355.501C355.149 73.088 354.645 72.272 353.989 71.792C353.349 71.312 352.653 71.072 351.901 71.072C350.813 71.072 349.989 71.512 349.429 72.392C348.885 73.272 348.613 74.528 348.613 76.16C348.613 76.848 348.669 77.552 348.781 78.272C348.893 78.992 349.069 79.664 349.309 80.288C349.565 80.896 349.901 81.392 350.317 81.776C350.749 82.144 351.285 82.328 351.925 82.328C352.821 82.328 353.637 81.984 354.373 81.296C355.125 80.608 355.653 79.656 355.957 78.44H356.509L356.317 81.608C355.805 82.184 355.117 82.624 354.253 82.928C353.405 83.216 352.461 83.36 351.421 83.36ZM357.968 70.4H370.088V74.36H369.536C369.44 73.496 369.192 72.792 368.792 72.248C368.392 71.704 367.744 71.432 366.848 71.432H365.864V80.6C365.864 81.384 365.968 81.88 366.176 82.088C366.4 82.296 366.776 82.416 367.304 82.448V83H361.064V82.448C361.416 82.416 361.68 82.296 361.856 82.088C362.048 81.88 362.144 81.384 362.144 80.6V71.432H361.136C360.288 71.432 359.664 71.704 359.264 72.248C358.864 72.792 358.616 73.496 358.52 74.36H357.968V70.4ZM372.095 83V82.448C372.447 82.416 372.711 82.296 372.887 82.088C373.079 81.88 373.175 81.384 373.175 80.6V72.8C373.175 72.016 373.063 71.52 372.839 71.312C372.631 71.088 372.263 70.968 371.735 70.952V70.4H373.175C374.343 70.4 375.375 70.384 376.271 70.352C377.167 70.304 377.887 70.28 378.431 70.28C379.935 70.28 381.111 70.424 381.959 70.712C382.807 70.984 383.399 71.36 383.735 71.84C384.087 72.304 384.263 72.84 384.263 73.448C384.263 74.12 383.999 74.776 383.471 75.416C382.943 76.056 382.167 76.552 381.143 76.904C380.119 77.256 378.863 77.36 377.375 77.216V76.376C378.319 76.424 379.023 76.168 379.487 75.608C379.951 75.032 380.183 74.376 380.183 73.64C380.183 72.872 379.991 72.296 379.607 71.912C379.239 71.512 378.735 71.312 378.095 71.312C377.695 71.312 377.391 71.408 377.183 71.6C376.991 71.776 376.895 72.176 376.895 72.8V80.6C376.895 81.384 377.015 81.88 377.255 82.088C377.495 82.296 377.935 82.416 378.575 82.448V83H372.095ZM393.087 70.04C394.479 70.04 395.679 70.344 396.687 70.952C397.695 71.544 398.471 72.344 399.015 73.352C399.559 74.344 399.831 75.448 399.831 76.664C399.831 77.944 399.535 79.088 398.943 80.096C398.367 81.104 397.567 81.904 396.543 82.496C395.535 83.072 394.367 83.36 393.039 83.36C391.647 83.36 390.447 83.064 389.439 82.472C388.431 81.864 387.655 81.056 387.111 80.048C386.567 79.04 386.295 77.936 386.295 76.736C386.295 75.456 386.583 74.312 387.159 73.304C387.751 72.296 388.559 71.504 389.583 70.928C390.607 70.336 391.775 70.04 393.087 70.04ZM393.423 82.328C394.015 82.328 394.479 82.12 394.815 81.704C395.151 81.272 395.391 80.696 395.535 79.976C395.679 79.24 395.751 78.416 395.751 77.504C395.751 76.336 395.639 75.272 395.415 74.312C395.207 73.336 394.879 72.552 394.431 71.96C393.983 71.368 393.407 71.072 392.703 71.072C392.127 71.072 391.663 71.288 391.311 71.72C390.975 72.136 390.735 72.704 390.591 73.424C390.447 74.144 390.375 74.968 390.375 75.896C390.375 77.048 390.479 78.112 390.687 79.088C390.911 80.064 391.247 80.848 391.695 81.44C392.143 82.032 392.719 82.328 393.423 82.328Z"/></clipPath><radialGradient id="paint0_radial_0_1" cx="0" cy="0" r="1" gradientUnits="userSpaceOnUse" gradientTransform="translate(2.60151e-05 2.05005) rotate(1.99993) scale(525.523 77.0565)">
    <stop offset="0.5" stop-color="#FF5500"/>
    <stop offset="1" stop-color="#BDF700"/>
    </radialGradient>
    <radialGradient id="paint1_radial_0_1" cx="0" cy="0" r="1" gradientUnits="userSpaceOnUse" gradientTransform="translate(1.11879e-05 2.05005) rotate(1.99993) scale(525.523 77.0565)">
    <stop offset="0.5" stop-color="#FF5500"/>
    <stop offset="1" stop-color="#BDF700"/>
    </radialGradient>
    <radialGradient id="paint2_radial_0_1" cx="0" cy="0" r="1" gradientUnits="userSpaceOnUse" gradientTransform="translate(-2.8427e-05 2.05005) rotate(1.99993) scale(525.523 77.0565)">
    <stop offset="0.5" stop-color="#FF5500"/>
    <stop offset="1" stop-color="#BDF700"/>
    </radialGradient>
    <radialGradient id="paint3_radial_0_1" cx="0" cy="0" r="1" gradientUnits="userSpaceOnUse" gradientTransform="translate(6.34678e-05 2.05005) rotate(1.99993) scale(525.523 77.0565)">
    <stop offset="0.5" stop-color="#FF5500"/>
    <stop offset="1" stop-color="#BDF700"/>
    </radialGradient>
    <radialGradient id="paint4_radial_0_1" cx="0" cy="0" r="1" gradientUnits="userSpaceOnUse" gradientTransform="translate(6.81525e-05 2.05005) rotate(1.99993) scale(525.523 77.0565)">
    <stop offset="0.5" stop-color="#FF5500"/>
    <stop offset="1" stop-color="#BDF700"/>
    </radialGradient>
    <radialGradient id="paint5_radial_0_1" cx="0" cy="0" r="1" gradientUnits="userSpaceOnUse" gradientTransform="translate(-6.78866e-05 2.05005) rotate(1.99993) scale(525.523 77.0565)">
    <stop offset="0.5" stop-color="#FF5500"/>
    <stop offset="1" stop-color="#BDF700"/>
    </radialGradient>
    <radialGradient id="paint6_radial_0_1" cx="0" cy="0" r="1" gradientUnits="userSpaceOnUse" gradientTransform="translate(0.000251537 2.05005) rotate(1.99993) scale(525.523 77.0565)">
    <stop offset="0.5" stop-color="#FF5500"/>
    <stop offset="1" stop-color="#BDF700"/>
    </radialGradient>
    <radialGradient id="paint7_radial_0_1" cx="0" cy="0" r="1" gradientUnits="userSpaceOnUse" gradientTransform="translate(6.06559e-05 2.05005) rotate(1.99993) scale(525.523 77.0565)">
    <stop offset="0.5" stop-color="#FF5500"/>
    <stop offset="1" stop-color="#BDF700"/>
    </radialGradient>
    <radialGradient id="paint8_radial_0_1" cx="0" cy="0" r="1" gradientUnits="userSpaceOnUse" gradientTransform="translate(-3.98803e-05 2.05005) rotate(1.99993) scale(525.523 77.0565)">
    <stop offset="0.5" stop-color="#FF5500"/>
    <stop offset="1" stop-color="#BDF700"/>
    </radialGradient>
    <linearGradient id="paint9_diamond_0_1" x1="0" y1="0" x2="500" y2="500" gradientUnits="userSpaceOnUse">
    <stop stop-color="#FFEAB2"/>
    <stop offset="1" stop-color="#DFA301"/>
    </linearGradient>
    <clipPath id="clip0_0_1">
    <rect width="439" height="61" fill="white"/>
    </clipPath>
    </defs>
    </svg>
    